<svg id="Layer_1" data-name="Layer 1" xmlns="http://www.w3.org/2000/svg" viewBox="0 0 80.48 147.57"><defs><style>.cls-1{fill:#f0f0f0;}.cls-2{font-size:20px;fill:#fff;font-family:ArialMT, Arial;}</style></defs><rect class="cls-1" y="37.81" width="80.48" height="109.77"/><text class="cls-2" transform="translate(17.45 17.16)">Hello</text><path d="M12.19,91.77v-10h1.33v4.12h5.2V81.75h1.33v10H18.72V87.05h-5.2v4.72Z" transform="translate(0 -15.93)"/><path d="M21.64,88.14a3.75,3.75,0,0,1,1.12-3,3.39,3.39,0,0,1,2.29-.81,3.28,3.28,0,0,1,2.45,1A3.74,3.74,0,0,1,28.45,88,4.83,4.83,0,0,1,28,90.25a3,3,0,0,1-1.23,1.24,3.51,3.51,0,0,1-1.75.45,3.28,3.28,0,0,1-2.47-1A3.93,3.93,0,0,1,21.64,88.14Zm1.27,0a3.07,3.07,0,0,0,.61,2.09,2,2,0,0,0,3.05,0,3.15,3.15,0,0,0,.61-2.13,3,3,0,0,0-.61-2,2,2,0,0,0-1.52-.69,1.94,1.94,0,0,0-1.53.69A3,3,0,0,0,22.91,88.14Z" transform="translate(0 -15.93)"/><path d="M31.23,91.77,29,84.51h1.27l1.15,4.19.43,1.56c0-.07.15-.57.38-1.49l1.15-4.26h1.27l1.09,4.22.36,1.38.42-1.4,1.24-4.2H39L36.7,91.77H35.42l-1.16-4.34L34,86.19l-1.47,5.58Z" transform="translate(0 -15.93)"/><path d="M44,91.77v-10h2l2.37,7.1c.22.66.38,1.15.48,1.48.11-.36.29-.9.53-1.6l2.4-7h1.79v10H52.29V83.39l-2.91,8.38h-1.2l-2.9-8.53v8.53Z" transform="translate(0 -15.93)"/><path d="M60.29,90.88A4.63,4.63,0,0,1,59,91.7a3.78,3.78,0,0,1-1.36.24,2.61,2.61,0,0,1-1.83-.59,1.92,1.92,0,0,1-.65-1.49,1.87,1.87,0,0,1,.25-1,2,2,0,0,1,.63-.71,3.16,3.16,0,0,1,.89-.41A9.72,9.72,0,0,1,58,87.59a11.59,11.59,0,0,0,2.19-.42c0-.17,0-.28,0-.32a1.31,1.31,0,0,0-.35-1.06,2,2,0,0,0-1.4-.42,2.2,2.2,0,0,0-1.28.3,1.84,1.84,0,0,0-.61,1.08l-1.21-.16a2.94,2.94,0,0,1,.54-1.25A2.41,2.41,0,0,1,57,84.61a4.88,4.88,0,0,1,1.65-.26,4.27,4.27,0,0,1,1.51.22,1.9,1.9,0,0,1,.85.55,1.93,1.93,0,0,1,.39.84,7,7,0,0,1,.06,1.13v1.64a17.7,17.7,0,0,0,.08,2.17,2.45,2.45,0,0,0,.31.87H60.53A2.58,2.58,0,0,1,60.29,90.88Zm-.11-2.75a9.05,9.05,0,0,1-2,.47,4.67,4.67,0,0,0-1.07.24,1.06,1.06,0,0,0-.48.4,1,1,0,0,0-.17.59,1.05,1.05,0,0,0,.37.82,1.65,1.65,0,0,0,1.09.32,2.5,2.5,0,0,0,1.26-.31,1.92,1.92,0,0,0,.82-.85,3,3,0,0,0,.19-1.23Z" transform="translate(0 -15.93)"/><path d="M63.28,94.57l-.14-1.16a2.51,2.51,0,0,0,.71.11,1.34,1.34,0,0,0,.65-.13,1.09,1.09,0,0,0,.41-.39,5.28,5.28,0,0,0,.37-.91c0-.07.06-.17.11-.3l-2.75-7.28H64l1.52,4.21c.19.53.37,1.09.52,1.68a14.39,14.39,0,0,1,.51-1.65l1.55-4.24h1.23L66.53,91.9a16.53,16.53,0,0,1-.69,1.64,2.47,2.47,0,0,1-.75.9,1.79,1.79,0,0,1-1,.28A2.48,2.48,0,0,1,63.28,94.57Z" transform="translate(0 -15.93)"/><path d="M23.26,108.57v-10h1.33v10Z" transform="translate(0 -15.93)"/><path d="M30.86,108.57v-10h1.32v4.12h5.21V98.55h1.33v10H37.39v-4.72H32.18v4.72Z" transform="translate(0 -15.93)"/><path d="M45.74,106.24l1.27.15a3,3,0,0,1-1.12,1.73,3.76,3.76,0,0,1-4.6-.36,3.85,3.85,0,0,1-.93-2.75,4,4,0,0,1,.94-2.85,3.22,3.22,0,0,1,2.45-1,3.12,3.12,0,0,1,2.38,1,4,4,0,0,1,.92,2.79c0,.07,0,.18,0,.33H41.63a2.72,2.72,0,0,0,.68,1.83,2,2,0,0,0,1.51.64,1.88,1.88,0,0,0,1.16-.36A2.37,2.37,0,0,0,45.74,106.24Zm-4-2h4a2.5,2.5,0,0,0-.46-1.38,1.91,1.91,0,0,0-1.53-.71,1.94,1.94,0,0,0-1.42.57A2.22,2.22,0,0,0,41.7,104.25Z" transform="translate(0 -15.93)"/><path d="M48.53,108.57v-10h1.23v10Z" transform="translate(0 -15.93)"/><path d="M51.66,111.36v-10h1.12v1a2.8,2.8,0,0,1,.9-.83,2.41,2.41,0,0,1,1.21-.28,2.85,2.85,0,0,1,1.64.48A3,3,0,0,1,57.6,103a4.78,4.78,0,0,1,.37,1.91,5,5,0,0,1-.4,2,3,3,0,0,1-1.17,1.36,2.93,2.93,0,0,1-1.6.48,2.32,2.32,0,0,1-1.1-.26,2.53,2.53,0,0,1-.81-.66v3.54ZM52.78,105a3.17,3.17,0,0,0,.57,2.08,1.74,1.74,0,0,0,1.37.67,1.78,1.78,0,0,0,1.4-.7,3.29,3.29,0,0,0,.59-2.15,3.23,3.23,0,0,0-.57-2.08,1.73,1.73,0,0,0-1.37-.69,1.79,1.79,0,0,0-1.39.74A3.3,3.3,0,0,0,52.78,105Z" transform="translate(0 -15.93)"/><path d="M28.44,125.37v-4.24l-3.86-5.78h1.61l2,3c.36.57.7,1.13,1,1.7.3-.52.67-1.11,1.1-1.77l1.94-3h1.54l-4,5.78v4.24Z" transform="translate(0 -15.93)"/><path d="M33.05,121.74a3.75,3.75,0,0,1,1.12-3,3.39,3.39,0,0,1,2.29-.81,3.25,3.25,0,0,1,2.44,1,3.7,3.7,0,0,1,1,2.71,4.83,4.83,0,0,1-.42,2.21,2.92,2.92,0,0,1-1.22,1.24,3.54,3.54,0,0,1-1.75.45,3.28,3.28,0,0,1-2.47-1A3.93,3.93,0,0,1,33.05,121.74Zm1.27,0a3.07,3.07,0,0,0,.61,2.09,2,2,0,0,0,3,0,3.15,3.15,0,0,0,.61-2.13,3,3,0,0,0-.61-2,2,2,0,0,0-1.52-.69,1.94,1.94,0,0,0-1.53.69A3,3,0,0,0,34.32,121.74Z" transform="translate(0 -15.93)"/><path d="M46.05,125.37v-1.06a2.65,2.65,0,0,1-2.3,1.23,2.84,2.84,0,0,1-1.2-.25,2,2,0,0,1-.83-.62,2.43,2.43,0,0,1-.38-.91,6.34,6.34,0,0,1-.07-1.15v-4.5H42.5v4a7.06,7.06,0,0,0,.08,1.3,1.24,1.24,0,0,0,.49.76,1.49,1.49,0,0,0,.93.28,2,2,0,0,0,1-.29,1.5,1.5,0,0,0,.68-.77,3.75,3.75,0,0,0,.2-1.42v-3.89h1.24v7.26Z" transform="translate(0 -15.93)"/><path d="M51.39,122.91c0-.17,0-.29,0-.37a3.34,3.34,0,0,1,.21-1.25,2.83,2.83,0,0,1,.48-.8,7.54,7.54,0,0,1,.89-.86,4.62,4.62,0,0,0,.83-.9A1.53,1.53,0,0,0,54,118a1.71,1.71,0,0,0-.56-1.26,1.89,1.89,0,0,0-1.38-.55,1.84,1.84,0,0,0-1.31.5,2.57,2.57,0,0,0-.69,1.53l-1.26-.15A3,3,0,0,1,52,115.18a3.38,3.38,0,0,1,2.35.8,2.53,2.53,0,0,1,.87,1.94,2.42,2.42,0,0,1-.31,1.21,5.53,5.53,0,0,1-1.2,1.34,6,6,0,0,0-.78.79,1.65,1.65,0,0,0-.28.58,4.91,4.91,0,0,0-.1,1.07Zm-.08,2.46V124h1.4v1.4Z" transform="translate(0 -15.93)"/></svg>